<svg width="84" height="16" viewBox="0 0 84 16" fill="none" xmlns="http://www.w3.org/2000/svg">
<path d="M25.0007 1.3335L27.0607 5.50683L31.6673 6.18016L28.334 9.42683L29.1207 14.0135L25.0007 11.8468L20.8807 14.0135L21.6673 9.42683L18.334 6.18016L22.9407 5.50683L25.0007 1.3335Z" fill="#FF642F" stroke="#FF642F" stroke-linecap="round" stroke-linejoin="round"/>
<path d="M25.0007 1.3335L27.0607 5.50683L31.6673 6.18016L28.334 9.42683L29.1207 14.0135L25.0007 11.8468L20.8807 14.0135L21.6673 9.42683L18.334 6.18016L22.9407 5.50683L25.0007 1.3335Z" fill="#FF642F" stroke="#FF642F" stroke-linecap="round" stroke-linejoin="round"/>
<path d="M42.0007 1.3335L44.0607 5.50683L48.6673 6.18016L45.334 9.42683L46.1207 14.0135L42.0007 11.8468L37.8807 14.0135L38.6673 9.42683L35.334 6.18016L39.9407 5.50683L42.0007 1.3335Z" fill="#FF642F" stroke="#FF642F" stroke-linecap="round" stroke-linejoin="round"/>
<path d="M42.0007 1.3335L44.0607 5.50683L48.6673 6.18016L45.334 9.42683L46.1207 14.0135L42.0007 11.8468L37.8807 14.0135L38.6673 9.42683L35.334 6.18016L39.9407 5.50683L42.0007 1.3335Z" fill="#FF642F" stroke="#FF642F" stroke-linecap="round" stroke-linejoin="round"/>
<path d="M59.0007 1.3335L61.0607 5.50683L65.6673 6.18016L62.334 9.42683L63.1207 14.0135L59.0007 11.8468L54.8807 14.0135L55.6673 9.42683L52.334 6.18016L56.9407 5.50683L59.0007 1.3335Z" fill="#FF642F" stroke="#FF642F" stroke-linecap="round" stroke-linejoin="round"/>
<path d="M59.0007 1.3335L61.0607 5.50683L65.6673 6.18016L62.334 9.42683L63.1207 14.0135L59.0007 11.8468L54.8807 14.0135L55.6673 9.42683L52.334 6.18016L56.9407 5.50683L59.0007 1.3335Z" fill="#FF642F" stroke="#FF642F" stroke-linecap="round" stroke-linejoin="round"/>
<path d="M76.0007 1.3335L78.0607 5.50683L82.6673 6.18016L79.334 9.42683L80.1207 14.0135L76.0007 11.8468L71.8807 14.0135L72.6673 9.42683L69.334 6.18016L73.9407 5.50683L76.0007 1.3335Z" fill="#FF642F" stroke="#FF642F" stroke-linecap="round" stroke-linejoin="round"/>
<path d="M76.0007 1.3335L78.0607 5.50683L82.6673 6.18016L79.334 9.42683L80.1207 14.0135L76.0007 11.8468L71.8807 14.0135L72.6673 9.42683L69.334 6.18016L73.9407 5.50683L76.0007 1.3335Z" fill="#FF642F" stroke="#FF642F" stroke-linecap="round" stroke-linejoin="round"/>
<path d="M8.00065 1.3335L10.0607 5.50683L14.6673 6.18016L11.334 9.42683L12.1207 14.0135L8.00065 11.8468L3.88065 14.0135L4.66732 9.42683L1.33398 6.18016L5.94065 5.50683L8.00065 1.3335Z" fill="#FF642F" stroke="#FF642F" stroke-linecap="round" stroke-linejoin="round"/>
<path d="M8.00065 1.3335L10.0607 5.50683L14.6673 6.18016L11.334 9.42683L12.1207 14.0135L8.00065 11.8468L3.88065 14.0135L4.66732 9.42683L1.33398 6.18016L5.94065 5.50683L8.00065 1.3335Z" fill="#FF642F" stroke="#FF642F" stroke-linecap="round" stroke-linejoin="round"/>
</svg>
